# xmcd
#
# Track frame offsets:
#	150
#	15533
#	30373
#	48222
#	63520
#	80926
#	99100
#	117111
#	133807
#	151410
#	168825
#	187313
#
# Disc length: 2715 seconds
#
# Revision: 0
# Processed by: cddbd v1.5.2PL0 Copyright (c) Steve Scherf et al.
# Submitted via: dBpowerAMP V4.0
#
DISCID=950a990c
DTITLE=The Embers - The Show Must Go On
DYEAR=2008
DGENRE=beach
TTITLE0=The Last Time I'm Saying Goodbye
TTITLE1=You Mean the World to Me Sweetheart
TTITLE2=Loving' on Borrowed Time
TTITLE3=This Heart
TTITLE4=Never Give Up
TTITLE5=You're the Reason
TTITLE6=The Show Must Go On
TTITLE7=Not So Long Ago
TTITLE8=I've Done Things with You
TTITLE9=Makin Love To You
TTITLE10=Wastin' My Loving on You
TTITLE11=Get Your Loving While I Can
EXTD=
EXTT0=
EXTT1=
EXTT2=
EXTT3=
EXTT4=
EXTT5=
EXTT6=
EXTT7=
EXTT8=
EXTT9=
EXTT10=
EXTT11=
PLAYORDER=
